<svg id="Grupo_51333" data-name="Grupo 51333" xmlns="http://www.w3.org/2000/svg" xmlns:xlink="http://www.w3.org/1999/xlink" width="175.895" height="54.783" viewBox="0 0 175.895 54.783">
  <defs>
    <clipPath id="clip-path">
      <rect id="Rectángulo_46763" data-name="Rectángulo 46763" width="175.895" height="54.783" fill="none"/>
    </clipPath>
  </defs>
  <g id="Grupo_51161" data-name="Grupo 51161" clip-path="url(#clip-path)">
    <path id="Trazado_71706" data-name="Trazado 71706" d="M371.945,215.859h4.086a.164.164,0,0,1,.162.138l3.182,20.212a.164.164,0,0,1-.162.189h-4.269a.164.164,0,0,1-.162-.141l-.6-4.292a.164.164,0,0,0-.162-.141h-8.394a.164.164,0,0,0-.136.072l-2.991,4.43a.164.164,0,0,1-.136.072h-4.436a.164.164,0,0,1-.135-.257l14.019-20.212a.164.164,0,0,1,.135-.07m1.666,11.788-.847-6.116a.164.164,0,0,0-.3-.068l-4.077,6.116a.164.164,0,0,0,.136.255h4.925a.164.164,0,0,0,.162-.186" transform="translate(-308.829 -186.335)" fill="#009740"/>
    <path id="Trazado_71707" data-name="Trazado 71707" d="M518.687,249.892h4.089a.164.164,0,0,1,.158.206l-.656,2.444a.092.092,0,0,0,.164.078,9.085,9.085,0,0,1,2.31-2.248,5.161,5.161,0,0,1,3.135-.784.164.164,0,0,1,.149.207l-1.168,4.317a.164.164,0,0,1-.158.121H526.6a5.873,5.873,0,0,0-3.846,1.34,8.28,8.28,0,0,0-2.447,4.4l-1.453,5.414a.164.164,0,0,1-.158.121h-4.089a.164.164,0,0,1-.158-.206l4.079-15.288a.164.164,0,0,1,.158-.122" transform="translate(-444.082 -215.445)" fill="#009740"/>
    <path id="Trazado_71708" data-name="Trazado 71708" d="M588.359,269.786a12.475,12.475,0,0,1-3.58-1.52.164.164,0,0,1-.04-.238l2.13-2.769a.163.163,0,0,1,.218-.037,10.338,10.338,0,0,0,2.554,1.185,9.891,9.891,0,0,0,2.943.451,5.472,5.472,0,0,0,1.923-.306,4.066,4.066,0,0,0,1.457-.947,4.367,4.367,0,0,0,.83-1.18,9.637,9.637,0,0,0,.6-1.617.164.164,0,0,0-.261-.171,8.124,8.124,0,0,1-1.924,1.234,6.392,6.392,0,0,1-2.564.481,6.736,6.736,0,0,1-2.17-.35,5.672,5.672,0,0,1-1.85-1.034,4.931,4.931,0,0,1-1.3-1.7,5.474,5.474,0,0,1-.481-2.36,9,9,0,0,1,.728-3.627,9.745,9.745,0,0,1,1.923-2.913,8.9,8.9,0,0,1,2.724-1.937,7.523,7.523,0,0,1,3.161-.7,6.327,6.327,0,0,1,1.748.219,4.758,4.758,0,0,1,1.326.6,4.172,4.172,0,0,1,.961.874q.276.348.516.709a.163.163,0,0,0,.293-.05l.513-1.936a.164.164,0,0,1,.158-.122h4.089a.164.164,0,0,1,.158.206l-3.3,12.351q-.321,1.195-.612,2.039a12.368,12.368,0,0,1-.612,1.486,7.914,7.914,0,0,1-.685,1.136,8.507,8.507,0,0,1-.83.961,6.894,6.894,0,0,1-2.578,1.617,10.877,10.877,0,0,1-3.656.539,17.645,17.645,0,0,1-4.516-.568m7.779-9.323a4.811,4.811,0,0,0,1.471-.976,4.759,4.759,0,0,0,1.005-1.442,4.2,4.2,0,0,0,.379-1.763,2.674,2.674,0,0,0-.845-2.1,3.236,3.236,0,0,0-2.243-.757,4.1,4.1,0,0,0-1.748.379,4.684,4.684,0,0,0-1.428,1.02,4.778,4.778,0,0,0-.961,1.486,4.53,4.53,0,0,0-.35,1.748,2.543,2.543,0,0,0,.83,2.083,3.255,3.255,0,0,0,2.141.685,4.369,4.369,0,0,0,1.748-.364" transform="translate(-504.732 -215.571)" fill="#009740"/>
    <path id="Trazado_71709" data-name="Trazado 71709" d="M730.937,261.6a3.569,3.569,0,0,0,2.593.83,4.985,4.985,0,0,0,1.69-.291,7.483,7.483,0,0,0,1.647-.872.164.164,0,0,1,.224.036l1.851,2.486a.165.165,0,0,1-.028.226,9.584,9.584,0,0,1-2.4,1.372,9.236,9.236,0,0,1-3.481.6A8.933,8.933,0,0,1,730,265.5a6.347,6.347,0,0,1-2.273-1.369,5.868,5.868,0,0,1-1.427-2.17,8.029,8.029,0,0,1-.5-2.913,9.178,9.178,0,0,1,.656-3.365,9.491,9.491,0,0,1,4.807-5.142,8.7,8.7,0,0,1,3.8-.816,7.415,7.415,0,0,1,2.709.466,5.767,5.767,0,0,1,2.01,1.282,5.425,5.425,0,0,1,1.238,1.923,6.735,6.735,0,0,1,.422,2.418,7.946,7.946,0,0,1-.2,1.748,10.821,10.821,0,0,1-.54,1.7.166.166,0,0,1-.153.1h-10.4a.163.163,0,0,0-.163.181,3.328,3.328,0,0,0,.943,2.048m6.08-5a.164.164,0,0,0,.159-.121,3.616,3.616,0,0,0,.112-.9,2.367,2.367,0,0,0-.6-1.631,2.52,2.52,0,0,0-1.966-.67,4.152,4.152,0,0,0-2.666.918,5.357,5.357,0,0,0-1.614,2.174.165.165,0,0,0,.151.229Z" transform="translate(-626.537 -215.572)" fill="#009740"/>
    <path id="Trazado_71710" data-name="Trazado 71710" d="M833.295,250.018h4.088a.164.164,0,0,1,.158.207l-.352,1.3a.034.034,0,0,0,.055.034,10.413,10.413,0,0,1,1.809-1.256,4.8,4.8,0,0,1,2.36-.579,4.622,4.622,0,0,1,3.35,1.209,4.421,4.421,0,0,1,1.253,3.336,7.134,7.134,0,0,1-.16,1.442q-.16.772-.364,1.529l-2.211,8.269a.164.164,0,0,1-.158.122h-4.089a.164.164,0,0,1-.158-.206l2.246-8.38a6.269,6.269,0,0,0,.146-.716,4.832,4.832,0,0,0,.058-.686,1.8,1.8,0,0,0-.568-1.431,2.334,2.334,0,0,0-1.588-.5,2.889,2.889,0,0,0-2.156.862,5.029,5.029,0,0,0-1.224,2.263l-2.327,8.669a.164.164,0,0,1-.158.121h-4.089a.164.164,0,0,1-.158-.206l4.079-15.288a.164.164,0,0,1,.158-.122" transform="translate(-715.659 -215.571)" fill="#009740"/>
    <path id="Trazado_71711" data-name="Trazado 71711" d="M949.193,241.668a2.8,2.8,0,0,1-.99-2.19,6.214,6.214,0,0,1,.073-.964,8.694,8.694,0,0,1,.218-.993l3.959-14.725a.164.164,0,0,1,.158-.121H956.7a.164.164,0,0,1,.158.207l-.966,3.578a.164.164,0,0,0,.158.207h3.243a.164.164,0,0,1,.158.207l-.931,3.431a.164.164,0,0,1-.158.121h-3.42a.164.164,0,0,0-.158.122L953.068,237a2.187,2.187,0,0,0-.087.366,2.229,2.229,0,0,0-.029.336q0,.934,1.194.934a5.247,5.247,0,0,0,1.122-.131,6.664,6.664,0,0,0,.853-.247.163.163,0,0,1,.213.2l-.914,3.37a.166.166,0,0,1-.091.108,7.549,7.549,0,0,1-3.134.608,4.421,4.421,0,0,1-3-.876" transform="translate(-818.514 -192.219)" fill="#009740"/>
    <path id="Trazado_71712" data-name="Trazado 71712" d="M1013.118,216.186h4.089a.164.164,0,0,1,.158.206l-4.107,15.288a.164.164,0,0,1-.158.121h-4.089a.164.164,0,0,1-.158-.206l4.107-15.288a.164.164,0,0,1,.158-.121m1.427-5.652h4.322a.164.164,0,0,1,.158.207l-.988,3.605a.164.164,0,0,1-.158.121h-4.322a.164.164,0,0,1-.158-.207l.988-3.605a.164.164,0,0,1,.158-.12" transform="translate(-870.863 -181.738)" fill="#009740"/>
    <path id="Trazado_71713" data-name="Trazado 71713" d="M1059.092,250.018h4.089a.164.164,0,0,1,.158.207l-.326,1.207a.064.064,0,0,0,.1.065,10.44,10.44,0,0,1,1.734-1.191,4.8,4.8,0,0,1,2.36-.579,4.622,4.622,0,0,1,3.35,1.209,4.421,4.421,0,0,1,1.253,3.336,7.126,7.126,0,0,1-.16,1.442q-.16.772-.364,1.529l-2.211,8.269a.164.164,0,0,1-.158.122h-4.089a.164.164,0,0,1-.158-.206l2.246-8.38a6.245,6.245,0,0,0,.146-.716,4.8,4.8,0,0,0,.058-.686,1.8,1.8,0,0,0-.568-1.431,2.334,2.334,0,0,0-1.588-.5,2.89,2.89,0,0,0-2.156.862,5.032,5.032,0,0,0-1.224,2.263l-2.327,8.669a.164.164,0,0,1-.158.121h-4.089a.164.164,0,0,1-.158-.206l4.079-15.288a.164.164,0,0,1,.158-.122" transform="translate(-910.574 -215.571)" fill="#009740"/>
    <path id="Trazado_71714" data-name="Trazado 71714" d="M1174.122,266.356a4.044,4.044,0,0,1-2.695-3.889,5.175,5.175,0,0,1,1.952-4.166,6.14,6.14,0,0,1,2.127-1.093,9.261,9.261,0,0,1,2.651-.364,13.433,13.433,0,0,1,2.345.189,15.627,15.627,0,0,1,1.894.459.163.163,0,0,0,.206-.111l.011-.038a.078.078,0,0,0,0-.01q.057-.26.115-.534a3.073,3.073,0,0,0,.058-.626,1.616,1.616,0,0,0-.641-1.326,3.829,3.829,0,0,0-2.3-.51,10.07,10.07,0,0,0-2.229.248,12.455,12.455,0,0,0-1.756.524.163.163,0,0,1-.22-.12l-.634-3.169a.164.164,0,0,1,.1-.185,15.926,15.926,0,0,1,2.553-.751,15.149,15.149,0,0,1,3.117-.306,7.539,7.539,0,0,1,4.749,1.253,4.282,4.282,0,0,1,1.573,3.554,6.926,6.926,0,0,1-.1,1.194q-.1.583-.248,1.165l-2.269,8.5a.164.164,0,0,1-.158.121h-3.945a.164.164,0,0,1-.159-.2l.3-1.174a.117.117,0,0,0-.2-.112,6.447,6.447,0,0,1-1.792,1.244,6.036,6.036,0,0,1-2.564.539,5.317,5.317,0,0,1-1.85-.306m5.069-2.972a4.192,4.192,0,0,0,1.151-.685,4.684,4.684,0,0,0,.9-1.005,4.128,4.128,0,0,0,.553-1.209l.075-.263a.163.163,0,0,0-.1-.2,8.538,8.538,0,0,0-1.2-.339,7.617,7.617,0,0,0-1.573-.16,3.753,3.753,0,0,0-2.287.656,2.106,2.106,0,0,0-.889,1.792,1.49,1.49,0,0,0,.553,1.194,2.23,2.23,0,0,0,1.486.466,3.571,3.571,0,0,0,1.326-.248" transform="translate(-1011.206 -216.307)" fill="#009740"/>
    <path id="Trazado_71715" data-name="Trazado 71715" d="M396.314,35.821h15.022a.244.244,0,0,1,.236.308l-.975,3.59a.244.244,0,0,1-.236.18H399.694a.244.244,0,0,0-.236.181l-1.034,3.853a.244.244,0,0,0,.236.307h9.1a.244.244,0,0,1,.236.307l-.949,3.59a.244.244,0,0,1-.236.182H397.45a.244.244,0,0,0-.236.181l-2.029,7.534a.244.244,0,0,1-.236.181h-3.981a.244.244,0,0,1-.236-.307L396.079,36a.244.244,0,0,1,.236-.181" transform="translate(-337.283 -30.922)" fill="#009740"/>
    <path id="Trazado_71716" data-name="Trazado 71716" d="M521.05,84.342a6.861,6.861,0,0,1-2.36-1.5,6.547,6.547,0,0,1-1.5-2.287,7.811,7.811,0,0,1-.524-2.9,8.5,8.5,0,0,1,.7-3.38,9.378,9.378,0,0,1,1.923-2.884,9.562,9.562,0,0,1,2.87-2.01,8.365,8.365,0,0,1,3.54-.757,8.581,8.581,0,0,1,3.132.539,6.877,6.877,0,0,1,2.36,1.5,6.555,6.555,0,0,1,1.5,2.287,7.816,7.816,0,0,1,.524,2.9,8.347,8.347,0,0,1-.714,3.379,9.528,9.528,0,0,1-4.807,4.894,8.3,8.3,0,0,1-3.51.757,8.577,8.577,0,0,1-3.132-.539m5.186-3.718a5.1,5.1,0,0,0,1.413-1.247,5.836,5.836,0,0,0,.9-1.657,5.284,5.284,0,0,0,.321-1.76,3.574,3.574,0,0,0-.932-2.654,3.327,3.327,0,0,0-2.447-.924,3.524,3.524,0,0,0-1.85.5,5.1,5.1,0,0,0-1.413,1.246,5.776,5.776,0,0,0-.9,1.672,5.327,5.327,0,0,0-.32,1.745,3.572,3.572,0,0,0,.932,2.654,3.325,3.325,0,0,0,2.447.924,3.525,3.525,0,0,0,1.85-.5" transform="translate(-445.999 -59.238)" fill="#009740"/>
    <path id="Trazado_71717" data-name="Trazado 71717" d="M638,68.789h3.922a.244.244,0,0,1,.236.307l-.543,2.022a.158.158,0,0,0,.278.137A8.826,8.826,0,0,1,644,69.27a5.125,5.125,0,0,1,3.027-.789.246.246,0,0,1,.23.309l-1.125,4.16a.244.244,0,0,1-.236.18h-.046A5.873,5.873,0,0,0,642,74.47a8.279,8.279,0,0,0-2.447,4.4l-1.437,5.355a.245.245,0,0,1-.236.181h-3.923a.244.244,0,0,1-.236-.307l4.036-15.127a.244.244,0,0,1,.236-.181" transform="translate(-547.039 -59.112)" fill="#009740"/>
    <path id="Trazado_71718" data-name="Trazado 71718" d="M724.145,80.5a3.57,3.57,0,0,0,2.593.83,4.984,4.984,0,0,0,1.69-.291,7.366,7.366,0,0,0,1.583-.829.245.245,0,0,1,.333.056l1.759,2.362a.243.243,0,0,1-.042.336,9.643,9.643,0,0,1-2.337,1.324,9.236,9.236,0,0,1-3.482.6,8.932,8.932,0,0,1-3.03-.481,6.345,6.345,0,0,1-2.273-1.369,5.868,5.868,0,0,1-1.427-2.17,8.03,8.03,0,0,1-.5-2.913,9.174,9.174,0,0,1,.655-3.365,9.492,9.492,0,0,1,4.807-5.142,8.7,8.7,0,0,1,3.8-.816,7.415,7.415,0,0,1,2.709.466A5.769,5.769,0,0,1,733,70.372a5.424,5.424,0,0,1,1.238,1.923,6.735,6.735,0,0,1,.423,2.418,7.932,7.932,0,0,1-.2,1.748,10.78,10.78,0,0,1-.52,1.653.246.246,0,0,1-.228.153H723.457a.246.246,0,0,0-.243.28,3.292,3.292,0,0,0,.93,1.949m6.017-5a.246.246,0,0,0,.239-.192,3.61,3.61,0,0,0,.095-.827,2.367,2.367,0,0,0-.6-1.631,2.52,2.52,0,0,0-1.967-.67,4.152,4.152,0,0,0-2.666.918,5.331,5.331,0,0,0-1.566,2.062.245.245,0,0,0,.225.342Z" transform="translate(-620.674 -59.238)" fill="#009740"/>
    <path id="Trazado_71719" data-name="Trazado 71719" d="M827.485,84.706a10.584,10.584,0,0,1-1.879-.524,10.261,10.261,0,0,1-1.763-.874,7.9,7.9,0,0,1-1.376-1.082.244.244,0,0,1,0-.342l2.227-2.3a.245.245,0,0,1,.346,0,6.488,6.488,0,0,0,2.3,1.489,7.033,7.033,0,0,0,2.3.437,2.343,2.343,0,0,0,1.37-.35,1.17,1.17,0,0,0,.5-1.02.943.943,0,0,0-.5-.772,8.075,8.075,0,0,0-1.311-.685q-.933-.378-1.748-.8a7.864,7.864,0,0,1-1.442-.947,4.04,4.04,0,0,1-.99-1.209,3.389,3.389,0,0,1-.364-1.617,5.389,5.389,0,0,1,.437-2.171,5.017,5.017,0,0,1,1.238-1.733,5.847,5.847,0,0,1,1.966-1.151,7.66,7.66,0,0,1,2.622-.423,8.867,8.867,0,0,1,1.85.189,10.408,10.408,0,0,1,1.69.51,10.191,10.191,0,0,1,1.457.714,8.138,8.138,0,0,1,.958.667.245.245,0,0,1,.033.35l-2.078,2.433a.245.245,0,0,1-.336.034,7.951,7.951,0,0,0-1.943-1.138A5.447,5.447,0,0,0,831.1,72a2.027,2.027,0,0,0-1.267.35,1.148,1.148,0,0,0-.452.962,1.018,1.018,0,0,0,.539.83,10.092,10.092,0,0,0,1.53.8q.757.35,1.529.728a6.542,6.542,0,0,1,1.384.9,4.376,4.376,0,0,1,.991,1.209,3.232,3.232,0,0,1,.379,1.588,5.327,5.327,0,0,1-.481,2.3,5.064,5.064,0,0,1-1.325,1.733A5.875,5.875,0,0,1,831.9,84.5a8.406,8.406,0,0,1-2.578.379,10.272,10.272,0,0,1-1.835-.175" transform="translate(-709.914 -59.238)" fill="#009740"/>
    <path id="Trazado_71720" data-name="Trazado 71720" d="M927.092,60.565a2.8,2.8,0,0,1-.991-2.191,6.213,6.213,0,0,1,.073-.964,8.669,8.669,0,0,1,.219-.993l3.943-14.665a.244.244,0,0,1,.236-.181h3.922a.244.244,0,0,1,.236.308l-.911,3.376a.244.244,0,0,0,.236.308h3.033a.244.244,0,0,1,.236.308l-.887,3.27a.244.244,0,0,1-.236.18h-3.3a.244.244,0,0,0-.236.182l-1.7,6.4a2.163,2.163,0,0,0-.087.366,2.2,2.2,0,0,0-.029.336q0,.934,1.195.934a5.249,5.249,0,0,0,1.122-.131,6.7,6.7,0,0,0,.708-.2.245.245,0,0,1,.318.294l-.864,3.184a.245.245,0,0,1-.136.16,7.575,7.575,0,0,1-3.1.593,4.421,4.421,0,0,1-3-.876" transform="translate(-799.435 -35.886)" fill="#009740"/>
    <path id="Trazado_71721" data-name="Trazado 71721" d="M994.188,85.252a4.045,4.045,0,0,1-2.695-3.889,5.174,5.174,0,0,1,1.952-4.166,6.138,6.138,0,0,1,2.127-1.093,9.261,9.261,0,0,1,2.651-.364,13.435,13.435,0,0,1,2.345.189,15.668,15.668,0,0,1,1.858.448.2.2,0,0,0,.252-.136l0-.012c.038-.173.076-.35.115-.533a3.083,3.083,0,0,0,.058-.626,1.616,1.616,0,0,0-.641-1.326,3.83,3.83,0,0,0-2.3-.51,10.068,10.068,0,0,0-2.229.248,12.567,12.567,0,0,0-1.714.508.2.2,0,0,1-.271-.147l-.619-3.094a.2.2,0,0,1,.123-.228,15.97,15.97,0,0,1,2.524-.739,15.149,15.149,0,0,1,3.117-.306,7.538,7.538,0,0,1,4.749,1.253,4.282,4.282,0,0,1,1.573,3.554,6.938,6.938,0,0,1-.1,1.194q-.1.583-.248,1.165l-2.262,8.474a.2.2,0,0,1-.194.149h-3.868a.2.2,0,0,1-.195-.251l.219-.849a.2.2,0,0,0-.329-.2,6.375,6.375,0,0,1-1.586,1.051,6.036,6.036,0,0,1-2.564.539,5.318,5.318,0,0,1-1.85-.306m5.069-2.972a4.19,4.19,0,0,0,1.151-.685,4.685,4.685,0,0,0,.9-1.005,4.125,4.125,0,0,0,.553-1.209l.066-.23a.2.2,0,0,0-.121-.243,8.6,8.6,0,0,0-1.168-.328,7.6,7.6,0,0,0-1.573-.16,3.752,3.752,0,0,0-2.287.656,2.105,2.105,0,0,0-.889,1.792,1.49,1.49,0,0,0,.554,1.195,2.229,2.229,0,0,0,1.486.466,3.569,3.569,0,0,0,1.325-.248" transform="translate(-855.883 -59.974)" fill="#009740"/>
    <path id="Trazado_71722" data-name="Trazado 71722" d="M1109.358,29.431h4.012a.2.2,0,0,1,.194.253l-5.6,20.865a.2.2,0,0,1-.194.149h-4.012a.2.2,0,0,1-.194-.253l5.6-20.865a.2.2,0,0,1,.194-.149" transform="translate(-952.617 -25.406)" fill="#009740"/>
    <path id="Trazado_71723" data-name="Trazado 71723" d="M45.626,48.062c-.2-.5-3.062-12.261-3.082-12.366a26.565,26.565,0,0,1,2.155-16.4c-.319,1.868-2.261,8.626-.738,16.113a.2.2,0,0,0,.362.059C46.15,32.2,52.178,19.332,47.834,0c-1.2,5.209-5.688,12.036-7.9,19.561C36.8,30.253,41.33,34.948,41.858,35.8c-.02.327,1.65,9.847,1.923,10.877.06.226.09.46.142.737a22.149,22.149,0,0,0-3.952-3.136c-.645-.67-1.279-1.35-1.854-2.08a45.922,45.922,0,0,1-8.583-16.871c.052.106,3.5,9.72,8.861,14.743a.21.21,0,0,0,.348-.2A78.04,78.04,0,0,0,33.878,23.5c-3.9-8.655-10.284-15.273-13-17.185,2.7,6.571,2.193,11,2.852,15.22C26.021,36.2,36.622,41.65,36.8,41.846c.267.3.486.641.736.956a54.7,54.7,0,0,0-7.09-3.28c-.188-.072-2.9-4.239-12.267-4.917C9.492,33.976,4.843,37.123,0,36.649c12.417,9.575,28.293,5.938,29.907,4.889a.1.1,0,0,0,0-.169c-4.2-2.3-13.483-3.136-13.483-3.136s7.8-.653,14.475,2.145c9.17,3.844,12.873,8.152,13.463,8.618a3.719,3.719,0,0,0,2.37.906.162.162,0,0,0,.095-.29,3.8,3.8,0,0,1-1.2-1.55M41.852,46.4c0-.012.008-.014.029-.01a.044.044,0,0,1-.029.01" fill="#92c024"/>
  </g>
</svg>
